<svg width="31" height="30" viewBox="0 0 31 30" fill="none" xmlns="http://www.w3.org/2000/svg">
<path d="M25.5355 0.75H5.53553C4.20945 0.75 2.93768 1.25045 2 2.14124C1.06232 3.03204 0.535534 4.24022 0.535534 5.5V24.5C0.535534 25.7598 1.06232 26.968 2 27.8588C2.93768 28.7496 4.20945 29.25 5.53553 29.25H25.5355C26.8616 29.25 28.1334 28.7496 29.0711 27.8588C30.0087 26.968 30.5355 25.7598 30.5355 24.5V5.5C30.5355 4.24022 30.0087 3.03204 29.0711 2.14124C28.1334 1.25045 26.8616 0.75 25.5355 0.75ZM20.5355 16.5833H17.2022V19.75C17.2022 20.1699 17.0266 20.5727 16.714 20.8696C16.4015 21.1665 15.9776 21.3333 15.5355 21.3333C15.0935 21.3333 14.6696 21.1665 14.357 20.8696C14.0445 20.5727 13.8689 20.1699 13.8689 19.75V16.5833H10.5355C10.0935 16.5833 9.66958 16.4165 9.35702 16.1196C9.04446 15.8227 8.86887 15.4199 8.86887 15C8.86887 14.5801 9.04446 14.1773 9.35702 13.8804C9.66958 13.5835 10.0935 13.4167 10.5355 13.4167H13.8689V10.25C13.8689 9.83007 14.0445 9.42735 14.357 9.13041C14.6696 8.83348 15.0935 8.66667 15.5355 8.66667C15.9776 8.66667 16.4015 8.83348 16.714 9.13041C17.0266 9.42735 17.2022 9.83007 17.2022 10.25V13.4167H20.5355C20.9776 13.4167 21.4015 13.5835 21.714 13.8804C22.0266 14.1773 22.2022 14.5801 22.2022 15C22.2022 15.4199 22.0266 15.8227 21.714 16.1196C21.4015 16.4165 20.9776 16.5833 20.5355 16.5833Z" fill="#24C58B"/>
</svg>
