<svg width="8" height="14" viewBox="0 0 8 14" fill="none" xmlns="http://www.w3.org/2000/svg">
    <path d="M7.72535 0.273986C7.63887 0.187137 7.53613 0.118231 7.42303 0.0712156C7.30992 0.0242005 7.18866 0 7.06621 0C6.94375 0 6.82249 0.0242005 6.70939 0.0712156C6.59628 0.118231 6.49354 0.187137 6.40706 0.273986L0.217811 6.47391C0.148766 6.54294 0.0939881 6.62492 0.0566131 6.71518C0.0192382 6.80543 0 6.90219 0 6.9999C0 7.09761 0.0192382 7.19437 0.0566131 7.28462C0.0939881 7.37488 0.148766 7.45687 0.217811 7.52589L6.40706 13.7258C6.77201 14.0914 7.3604 14.0914 7.72535 13.7258C8.0903 13.3602 8.0903 12.7708 7.72535 12.4053L2.33303 6.99617L7.7328 1.58709C8.0903 1.22897 8.0903 0.632105 7.72535 0.273986Z" fill="black"/>
</svg>
