<svg width="31" height="31" viewBox="0 0 31 31" fill="none" xmlns="http://www.w3.org/2000/svg">
<path d="M22.7685 11.7936C22.6044 11.7936 22.4417 11.8043 22.2815 11.8253C21.8434 9.9186 20.0037 8.50342 17.822 8.50342C15.9157 8.50342 14.2799 9.58598 13.6001 11.1177C13.2656 11.0324 12.9172 10.9877 12.5628 10.9877C10.4249 10.9877 8.68579 12.588 8.68579 14.5551C8.68579 16.1499 9.82905 17.5034 11.4009 17.9587V21.5794C11.4009 22.1698 11.9212 22.6485 12.5628 22.6485H22.7685C23.4101 22.6485 23.9304 22.1698 23.9304 21.5794V17.9362C25.2566 17.4968 26.2075 16.3278 26.2075 14.958C26.2075 13.2132 24.6647 11.7936 22.7685 11.7936ZM21.6066 20.5102H13.7247V18.1225H21.6066V20.5102ZM22.7685 15.9842H12.5628C11.7063 15.9842 11.0095 15.3431 11.0095 14.555C11.0095 13.7668 11.7063 13.1257 12.5628 13.1257C12.9562 13.1257 13.319 13.2743 13.6196 13.5074C14.3725 14.0913 15.5622 13.8294 15.5868 12.6981C15.5868 11.564 16.5894 10.6415 17.8219 10.6415C19.0037 10.6415 19.9813 11.4877 20.0529 12.5701C20.055 12.6717 20.0567 13.3181 20.057 13.5225C20.057 14.0608 20.5285 14.5483 21.1136 14.5483C21.4365 14.5483 21.7721 14.415 22.0087 14.2055L22.0097 14.2058C22.2165 14.0292 22.4858 13.9318 22.7684 13.9318C23.3834 13.9318 23.8836 14.3922 23.8836 14.958C23.8836 15.5238 23.3834 15.9842 22.7685 15.9842Z" fill="#DCDBE6"/>
<path d="M25.8059 0H1.09482C0.491204 0 0 0.416381 0 0.928184V30.0718C0 30.5836 0.491133 31 1.09482 31H25.8059C28.67 31 31 29.0246 31 26.5964V4.40357C31.0001 1.9754 28.67 0 25.8059 0ZM3.59205 29.1812H2.14543V1.81883H3.59205V29.1812ZM28.8547 26.5964C28.8547 28.0217 27.4871 29.1812 25.8059 29.1812H5.73726V1.81883H25.8059C27.487 1.81883 28.8547 2.9783 28.8547 4.40357V26.5964Z" fill="#DCDBE6"/>
</svg>
