<svg width="31" height="31" viewBox="0 0 31 31" fill="none" xmlns="http://www.w3.org/2000/svg">
<path fill-rule="evenodd" clip-rule="evenodd" d="M22.9064 25.7763H10.0952C6.39282 23.5868 4.0122 19.6459 3.72927 15.3177L6.24945 15.3293H13.046L29.2724 15.3177C28.9896 19.6459 26.6089 23.5868 22.9064 25.7763ZM22.5044 28.3882C22.5044 28.8689 22.1241 29.2588 21.6548 29.2588H11.3468C10.8776 29.2588 10.4973 28.869 10.4973 28.3882V27.5176H22.5044V28.3882ZM3.44681 9.19986C3.44842 9.16794 3.45076 9.13582 3.45403 9.10356C3.47843 8.86048 3.55502 8.62411 3.67787 8.41473C3.97196 7.91316 4.46382 7.60624 5.01503 7.56521C5.05694 7.56206 5.09878 7.56056 5.14042 7.56056C5.54652 7.56056 5.93485 7.70823 6.24524 7.98316C6.24524 7.98322 6.24531 7.98322 6.24538 7.98329C6.29631 8.02843 6.34597 8.07857 6.39697 8.13651C6.40853 8.14952 6.42042 8.16233 6.43266 8.17473L11.8036 13.5881H7.87054L7.21138 13.0762L4.05771 10.5328C3.66023 10.2122 3.42135 9.71759 3.44681 9.19986ZM11.3657 7.52884C11.7174 7.38234 11.9335 7.02097 11.9047 6.63296C11.8904 6.44002 11.8991 6.24536 11.9308 6.05441C12.0886 5.10044 12.7844 4.3497 13.7052 4.13764C14.0389 4.06086 14.3087 3.7984 14.3832 3.45628C14.6254 2.34307 15.6754 1.62047 16.7743 1.8117C17.8755 2.00321 18.6331 3.0406 18.5017 4.17525C18.4624 4.51552 18.6025 4.85496 18.8868 5.03531C19.691 5.54551 20.1089 6.49474 19.9509 7.44871C19.9213 7.62754 19.8708 7.80466 19.8007 7.97521C19.6522 8.33644 19.7526 8.74822 20.0466 8.99904C20.3884 9.29054 20.6482 9.66136 20.8138 10.0727C19.7161 10.9124 18.9303 12.1563 18.6674 13.5881H17.001C16.7729 13.452 16.5661 13.2817 16.3869 13.0817L18.8175 11.3134C19.1812 11.0489 19.3111 10.5438 19.0944 10.1444C18.8382 9.67211 18.248 9.54376 17.8301 9.8478L16.1453 11.0735L16.3747 9.68787L18.3093 8.28041C18.6731 8.01576 18.8029 7.51042 18.586 7.1109C18.3296 6.63872 17.7395 6.51077 17.3219 6.81474L16.7858 7.20487L17.0552 5.57694C17.1355 5.09215 16.8171 4.63243 16.3439 4.55024C15.8718 4.46798 15.4222 4.79428 15.342 5.27914L15.0839 6.8383L14.759 6.3692C14.4811 5.96817 13.9385 5.87393 13.5475 6.15858C13.1561 6.44324 13.0641 6.99912 13.3419 7.40008L14.6728 9.32129L14.4435 10.7069L13.3031 9.06082C13.0253 8.65979 12.4828 8.56548 12.0916 8.8502C11.7003 9.13486 11.6083 9.69067 11.8861 10.0917L13.6068 12.5755C13.535 12.6161 13.4613 12.6522 13.3865 12.6857L9.84913 9.12027C10.1163 8.40007 10.6568 7.82418 11.3657 7.52884ZM24.1344 10.7221C25.8877 10.7221 27.3682 11.937 27.8194 13.5881H20.4491C20.9002 11.9368 22.3811 10.7221 24.1344 10.7221ZM30.1505 13.5881H29.6027C29.1176 10.9465 26.8509 8.9413 24.1344 8.9413C23.5124 8.9413 22.9144 9.0476 22.3555 9.24143C22.1653 8.81363 21.9115 8.415 21.5993 8.06295C21.625 7.95816 21.6467 7.85261 21.6642 7.74658C21.9095 6.26591 21.3622 4.79161 20.254 3.85374C20.225 1.99136 18.9079 0.376444 17.0649 0.0560362C15.2316 -0.262933 13.4719 0.808289 12.8388 2.54451C11.471 3.04621 10.4654 4.25826 10.2175 5.75639C10.196 5.88626 10.1806 6.01701 10.1712 6.14824C9.48921 6.54762 8.93259 7.1194 8.54346 7.80432L7.66849 6.92234C7.57585 6.81878 7.47947 6.72255 7.38155 6.63584C6.47369 5.83167 5.26834 5.60352 4.19232 5.9179L4.33014 5.40626C4.4578 4.93222 4.18637 4.44189 3.72379 4.31107C3.26154 4.18045 2.78271 4.45832 2.65505 4.93243L2.45341 5.68085L1.45565 4.79688C1.13035 4.5088 0.642036 4.48511 0.313328 4.76901C-0.106947 5.13215 -0.0977238 5.77489 0.300696 6.12776L1.39984 7.10131L0.685681 7.51645C0.315133 7.73193 0.126116 8.24624 0.292876 8.64794C0.437245 8.99575 0.76074 9.19335 1.09479 9.19335C1.2401 9.19335 1.38741 9.15595 1.52276 9.07719L1.7226 8.96102C1.70489 9.15534 1.70182 9.35232 1.71592 9.55081C1.78235 10.4875 2.20083 11.3416 2.8946 11.9562C2.99299 12.0432 3.09986 12.127 3.21262 12.2053L4.99324 13.5881H2.85122C2.38196 13.5881 2.00165 13.9784 2.00165 14.4593C2.00192 19.57 4.58747 24.3093 8.79818 27.0102V28.3882C8.79818 29.8306 9.93923 31 11.3468 31H21.6548C23.0624 31 24.2035 29.8306 24.2035 28.3882V27.0102C28.4142 24.3093 30.9998 19.57 31 14.4593C31 13.9783 30.6198 13.5881 30.1505 13.5881Z" fill="#24C58B"/>
</svg>
